# Blender 3.5.1
# www.blender.org
mtllib cube.mtl
o Cube
v -0.706784 1.416357 -0.703129
v 0.628060 0.226012 -1.598268
v 0.384978 1.380791 0.972218
v 1.719822 0.190447 0.077080
v -1.719822 -0.190447 -0.077080
v -0.384978 -1.380791 -0.972218
v -0.628060 -0.226012 1.598268
v 0.706784 -1.416357 0.703129
vn -0.9929 -0.1100 -0.0445
vn 0.2223 0.7972 0.5613
vn -0.4081 0.8177 -0.4060
vn 0.4081 -0.8177 0.4060
vn 0.9929 0.1100 0.0445
vn -0.3626 -0.1305 0.9228
vn -0.2223 -0.7972 -0.5613
vn 0.3626 0.1305 -0.9228
vt 0.625000 0.500000
vt 0.375000 0.500000
vt 0.625000 0.750000
vt 0.375000 0.750000
vt 0.875000 0.500000
vt 0.625000 0.250000
vt 0.125000 0.500000
vt 0.375000 0.250000
vt 0.875000 0.750000
vt 0.625000 1.000000
vt 0.625000 0.000000
vt 0.375000 0.000000
vt 0.375000 1.000000
vt 0.125000 0.750000
s 1
usemtl Material
f 5/5/1 3/3/2 1/1/3
f 3/3/2 8/13/4 4/4/5
f 7/11/6 6/8/7 8/12/4
f 2/2/8 8/14/4 6/7/7
f 1/1/3 4/4/5 2/2/8
f 5/6/1 2/2/8 6/8/7
f 5/5/1 7/9/6 3/3/2
f 3/3/2 7/10/6 8/13/4
f 7/11/6 5/6/1 6/8/7
f 2/2/8 4/4/5 8/14/4
f 1/1/3 3/3/2 4/4/5
f 5/6/1 1/1/3 2/2/8
