# Blender 3.5.1
# www.blender.org
mtllib cube.mtl
o Cube
v -0.732210 -0.718077 1.395792
v 0.349460 0.964180 1.395792
v -1.714875 -0.086236 -0.227521
v -0.633205 1.596022 -0.227521
v 0.633205 -1.596022 0.227521
v 1.714875 0.086236 0.227521
v -0.349460 -0.964180 -1.395792
v 0.732210 0.718077 -1.395792
vn 0.2018 0.5567 0.8059
vn -0.9901 -0.0498 -0.1314
vn -0.4227 -0.4146 0.8059
vn -0.3656 0.9215 -0.1314
vn -0.2018 -0.5567 -0.8059
vn 0.4227 0.4146 -0.8059
vn 0.3656 -0.9215 0.1314
vn 0.9901 0.0498 0.1314
vt 0.375000 0.000000
vt 0.375000 1.000000
vt 0.125000 0.750000
vt 0.625000 0.000000
vt 0.625000 1.000000
vt 0.875000 0.750000
vt 0.125000 0.500000
vt 0.375000 0.250000
vt 0.625000 0.250000
vt 0.875000 0.500000
vt 0.375000 0.750000
vt 0.625000 0.750000
vt 0.375000 0.500000
vt 0.625000 0.500000
s 1
f 2/4/1 3/8/2 1/1/3
f 4/9/4 7/13/5 3/8/2
f 8/14/6 5/11/7 7/13/5
f 6/12/8 1/2/3 5/11/7
f 7/13/5 1/3/3 3/7/2
f 4/10/4 6/12/8 8/14/6
f 2/4/1 4/9/4 3/8/2
f 4/9/4 8/14/6 7/13/5
f 8/14/6 6/12/8 5/11/7
f 6/12/8 2/5/1 1/2/3
f 7/13/5 5/11/7 1/3/3
f 4/10/4 2/6/1 6/12/8
